<svg width="400" height="200" xmlns:xlink="http://www.w3.org/1999/xlink" xmlns="http://www.w3.org/2000/svg"><defs><linearGradient xlink:href="#a" id="b" x1="0" y1="0" x2="26.458" y2="26.458" gradientUnits="userSpaceOnUse" gradientTransform="matrix(7.55905 0 0 7.55905 200 0)"/><linearGradient id="a"><stop style="stop-color:#80deea;stop-opacity:1" offset="0"/><stop style="stop-color:#1976d2;stop-opacity:1" offset="1"/></linearGradient><path id="c" d="M259.268 91.88H434.61v85.363H259.268z"/></defs><rect style="fill:url(#b);fill-opacity:1;stroke-width:0" width="200" height="200" x="200" ry="0"/><path style="fill:#fff;fill-opacity:.705409;stroke-width:0" d="M328.297 200c-.699-.414-.906-.529-2.531-1.472a742.769 742.769 0 0 0-19.299-10.79 750.688 750.688 0 0 0-8.95-4.755 693.05 693.05 0 0 0-9.816-5.033 610.992 610.992 0 0 0-10.447-5.13 492.362 492.362 0 0 0-16.348-7.48 393.764 393.764 0 0 0-5.511-2.347 345.902 345.902 0 0 0-5.495-2.234 299.935 299.935 0 0 0-5.447-2.1 256.494 256.494 0 0 0-5.371-1.943 216.087 216.087 0 0 0-5.266-1.764 179.127 179.127 0 0 0-5.13-1.562 145.86 145.86 0 0 0-4.967-1.338c-1.625-.406-3.22-.77-4.776-1.09a91.11 91.11 0 0 0-4.55-.82 69.695 69.695 0 0 0-4.3-.528 56.158 56.158 0 0 0-2.046-.146 48.43 48.43 0 0 0-1.97-.065 41.59 41.59 0 0 0-1.895.02c-.619.02-1.224.055-1.815.105-.59.05-1.165.117-1.726.197-.22.032-.426.077-.641.114V200h128.297z"/><path style="fill:#fff;fill-opacity:.948458;stroke-width:0" d="M400 139.588c-.595-.267-1.09-.54-1.686-.784a57.837 57.837 0 0 0-5.576-1.949 55.83 55.83 0 0 0-5.57-1.324 55.586 55.586 0 0 0-5.555-.733 56.91 56.91 0 0 0-5.527-.18 61.776 61.776 0 0 0-8.21.684 69.934 69.934 0 0 0-8.084 1.713 81.18 81.18 0 0 0-5.297 1.654 90.246 90.246 0 0 0-7.781 3.15 100.628 100.628 0 0 0-5.06 2.493c-1.668.878-3.318 1.8-4.945 2.762a127.843 127.843 0 0 0-4.816 2.994 141.312 141.312 0 0 0-4.678 3.19 155.334 155.334 0 0 0-4.527 3.347 169.339 169.339 0 0 0-4.364 3.465 183.718 183.718 0 0 0-4.191 3.549 197.216 197.216 0 0 0-4.004 3.59 210.374 210.374 0 0 0-3.809 3.6 231.806 231.806 0 0 0-10.121 10.455 244.217 244.217 0 0 0-5.547 6.31 238.065 238.065 0 0 0-4.476 5.433 209.856 209.856 0 0 0-3.313 4.254c-1.322 1.745-1.66 2.218-2.029 2.739H400v-60.412z"/><circle style="fill:#fffd93;fill-opacity:1;stroke-width:22.5301;stroke-linecap:round;stroke-linejoin:round;stroke-dashoffset:4" cx="258.314" cy="50.405" r="25.546"/><path style="fill:#000;fill-opacity:.188039;stroke-width:20;stroke-linecap:round;stroke-linejoin:bevel;stroke-dashoffset:4" d="M200 0h200v200H200z"/><text xml:space="preserve" style="font-style:normal;font-weight:400;font-size:64px;line-height:1.25;font-family:sans-serif;white-space:pre;shape-inside:url(#c);fill:#000;fill-opacity:1;stroke:none" transform="translate(-24.708 -29.918)"><tspan x="259.268" y="156.201"><tspan style="fill:#fff">OCR</tspan></tspan></text><path style="fill:#d7d7d7;fill-opacity:1;stroke:none;stroke-width:1;stroke-linecap:round;stroke-linejoin:round;stroke-miterlimit:4;stroke-dasharray:none;stroke-dashoffset:4;stroke-opacity:1" d="M10 130h60v20H10zM10 160h180v10H10zM10 180h180v10H10zM10 200h180v10H10zM10 220h180v10H10zM10 240h180v10H10zM10 260h180v10H10z" transform="translate(0 -100)"/><path style="fill:#05f;fill-opacity:1;stroke-width:20;stroke-linecap:round;stroke-linejoin:bevel;stroke-dashoffset:4" d="M70 80h50v10H70z"/></svg>