<?xml version="1.0" encoding="UTF-8" standalone="no"?>
<svg
   enable-background="new 0 0 35 54"
   viewBox="0 0 35 35"
   version="1.1"
   id="svg4"
   sodipodi:docname="mac_os__udjqv4ogm8ii_large.svg"
   width="35"
   height="35"
   inkscape:version="1.1.1 (3bf5ae0d25, 2021-09-20, custom)"
   xmlns:inkscape="http://www.inkscape.org/namespaces/inkscape"
   xmlns:sodipodi="http://sodipodi.sourceforge.net/DTD/sodipodi-0.dtd"
   xmlns="http://www.w3.org/2000/svg"
   xmlns:svg="http://www.w3.org/2000/svg">
  <defs
     id="defs8" />
  <sodipodi:namedview
     id="namedview6"
     pagecolor="#ffffff"
     bordercolor="#111111"
     borderopacity="1"
     inkscape:pageshadow="0"
     inkscape:pageopacity="0"
     inkscape:pagecheckerboard="1"
     showgrid="false"
     inkscape:zoom="10.277778"
     inkscape:cx="13.913514"
     inkscape:cy="26.951351"
     inkscape:window-width="1920"
     inkscape:window-height="1031"
     inkscape:window-x="0"
     inkscape:window-y="0"
     inkscape:window-maximized="1"
     inkscape:current-layer="svg4" />
  <path
     d="m 16.3,21.14 c 0,2.86 -1.49,4.66 -3.87,4.66 -2.38,0 -3.87,-1.81 -3.87,-4.66 0,-2.87 1.49,-4.67 3.87,-4.67 2.38,0 3.87,1.8 3.87,4.67 z m 3.32,-10.09 -1.04,0.07 c -0.59,0.04 -0.85,0.25 -0.85,0.63 0,0.4 0.33,0.62 0.79,0.62 0.63,0 1.1,-0.41 1.1,-0.96 z M 34.5,17.5 c 0,9.49 -7.51,17 -17,17 -9.49,0 -17,-7.51 -17,-17 0,-9.49 7.51,-17 17,-17 9.49,0 17,7.51 17,17 z M 21.44,10.84 c 0,1.38 0.76,2.22 2,2.22 1.05,0 1.71,-0.59 1.82,-1.43 h -0.82 c -0.11,0.46 -0.47,0.71 -1,0.71 -0.7,0 -1.13,-0.57 -1.13,-1.5 0,-0.92 0.43,-1.47 1.13,-1.47 0.56,0 0.91,0.32 1,0.73 h 0.82 C 25.15,9.28 24.51,8.66 23.44,8.66 c -1.24,-0.01 -2,0.83 -2,2.18 z M 10.01,8.74 v 4.24 h 0.84 v -2.6 c 0,-0.55 0.39,-0.99 0.9,-0.99 0.5,0 0.82,0.3 0.82,0.78 v 2.81 h 0.82 V 10.3 c 0,-0.51 0.35,-0.91 0.9,-0.91 0.55,0 0.82,0.28 0.82,0.87 v 2.72 h 0.84 v -2.93 c 0,-0.88 -0.5,-1.4 -1.36,-1.4 -0.59,0 -1.08,0.3 -1.29,0.76 H 13.23 C 13.04,8.95 12.64,8.65 12.06,8.65 c -0.57,0 -1,0.28 -1.18,0.76 H 10.82 V 8.73 Z m 7.78,12.4 c 0,-3.69 -2.06,-6.01 -5.36,-6.01 -3.3,0 -5.36,2.32 -5.36,6.01 0,3.69 2.06,6 5.36,6 3.3,0 5.36,-2.32 5.36,-6 z m 0.52,-8.09 c 0.56,0 1.02,-0.24 1.28,-0.67 h 0.07 v 0.6 h 0.81 v -2.9 c 0,-0.89 -0.6,-1.42 -1.67,-1.42 -0.97,0 -1.65,0.47 -1.74,1.18 h 0.81 c 0.09,-0.31 0.42,-0.48 0.89,-0.48 0.57,0 0.87,0.26 0.87,0.73 v 0.37 l -1.15,0.07 c -1.01,0.06 -1.58,0.5 -1.58,1.27 -0.01,0.76 0.59,1.25 1.41,1.25 z m 9.17,10.59 c 0,-1.65 -0.96,-2.61 -3.38,-3.14 l -1.29,-0.28 c -1.59,-0.35 -2.21,-0.98 -2.21,-1.89 0,-1.18 1.12,-1.89 2.57,-1.89 1.52,0 2.52,0.78 2.65,2.06 h 1.45 c -0.07,-1.97 -1.74,-3.36 -4.06,-3.36 -2.41,0 -4.1,1.35 -4.1,3.26 0,1.65 1.01,2.71 3.34,3.22 l 1.29,0.28 c 1.61,0.35 2.26,1 2.26,1.97 0,1.14 -1.15,1.97 -2.72,1.97 -1.67,0 -2.83,-0.76 -3,-2.01 h -1.45 c 0.14,2.01 1.83,3.31 4.37,3.31 2.59,0 4.28,-1.35 4.28,-3.5 z"
     fill="#1d1d1f"
     id="path2" />
</svg>
