<svg width="200" height="400" xmlns:xlink="http://www.w3.org/1999/xlink" xmlns="http://www.w3.org/2000/svg"><defs><linearGradient xlink:href="#a" id="b" x1="0" y1="0" x2="26.458" y2="26.458" gradientUnits="userSpaceOnUse" gradientTransform="matrix(6.80315 0 0 3.77953 10 10)"/><linearGradient id="a"><stop style="stop-color:#80deea;stop-opacity:1" offset="0"/><stop style="stop-color:#1976d2;stop-opacity:1" offset="1"/></linearGradient></defs><rect style="fill:url(#b);fill-opacity:1;stroke-width:0" width="180" height="100" x="10" y="10" ry="10"/><path style="fill:#fff;fill-opacity:.70540881;stroke-width:0" d="M138.297 110c-.699-.414-.906-.544-2.531-1.486a742.769 742.769 0 0 0-19.299-10.79 750.66 750.66 0 0 0-8.95-4.755 692.996 692.996 0 0 0-9.816-5.033 610.989 610.989 0 0 0-10.447-5.131 492.543 492.543 0 0 0-16.348-7.48 393.839 393.839 0 0 0-5.511-2.346 345.918 345.918 0 0 0-5.495-2.235 299.879 299.879 0 0 0-5.447-2.1 256.472 256.472 0 0 0-5.371-1.943 216.037 216.037 0 0 0-5.266-1.763 179.11 179.11 0 0 0-5.13-1.563 145.85 145.85 0 0 0-4.967-1.338c-1.625-.406-3.22-.77-4.776-1.09a91.1 91.1 0 0 0-4.55-.82 69.689 69.689 0 0 0-4.3-.527 56.252 56.252 0 0 0-2.046-.147 48.285 48.285 0 0 0-1.97-.064 41.545 41.545 0 0 0-1.895.02c-.619.02-1.224.054-1.815.105-.59.05-1.165.116-1.726.197-.22.032-.426.077-.641.113V100c0 5.54 4.46 10 10 10z"/><path style="fill:#fff;fill-opacity:.94845802;stroke-width:0" d="M190 49.56c-.595-.266-1.19-.54-1.785-.783a57.834 57.834 0 0 0-5.576-1.949 55.824 55.824 0 0 0-5.57-1.324 55.58 55.58 0 0 0-5.555-.733 56.886 56.886 0 0 0-5.528-.18 61.793 61.793 0 0 0-8.21.684 69.926 69.926 0 0 0-8.084 1.713 81.187 81.187 0 0 0-5.297 1.654 90.275 90.275 0 0 0-7.781 3.15 100.625 100.625 0 0 0-5.06 2.493c-1.667.878-3.317 1.8-4.945 2.762a127.84 127.84 0 0 0-4.816 2.994 141.31 141.31 0 0 0-4.678 3.19 155.317 155.317 0 0 0-4.527 3.347 169.347 169.347 0 0 0-4.363 3.465 183.706 183.706 0 0 0-4.192 3.549 197.207 197.207 0 0 0-4.004 3.59 210.342 210.342 0 0 0-3.808 3.6 231.86 231.86 0 0 0-13.023 13.701 244.683 244.683 0 0 0-7.122 8.497 209.86 209.86 0 0 0-3.312 4.254c-1.322 1.745-1.66 2.245-2.03 2.766H180c5.54 0 10-4.46 10-10z"/><circle style="fill:#fffd93;fill-opacity:1;stroke-width:10.5833;stroke-linecap:round;stroke-linejoin:round;stroke-dashoffset:4" cx="57.007" cy="32.97" r="12"/><path style="fill:#d7d7d7;fill-opacity:1;stroke:none;stroke-width:1;stroke-linecap:round;stroke-linejoin:round;stroke-miterlimit:4;stroke-dasharray:none;stroke-dashoffset:4;stroke-opacity:1" d="M10 130h60v20H10zM10 160h180v10H10zM10 180h180v10H10zM10 200h180v10H10zM10 220h180v10H10zM10 240h180v10H10zM10 260h180v10H10z"/><text xml:space="preserve" style="font-style:normal;font-weight:400;font-size:16px;line-height:1.25;font-family:sans-serif;fill:#d7d7d7;fill-opacity:1;stroke:none" x="30.368" y="301.111"><tspan x="30.368" y="301.111" style="font-size:16px">666</tspan></text><text xml:space="preserve" style="font-style:normal;font-weight:400;font-size:16px;line-height:1.25;font-family:sans-serif;fill:#d7d7d7;fill-opacity:1;stroke:none" x="156.821" y="369.721"><tspan x="156.821" y="369.721" style="font-size:16px">666</tspan></text><text xml:space="preserve" style="font-style:normal;font-weight:400;font-size:16px;line-height:1.25;font-family:sans-serif;fill:#d7d7d7;fill-opacity:1;stroke:none" x="87.702" y="301.343"><tspan x="87.702" y="301.343" style="font-size:16px">点个Star吧</tspan></text><text xml:space="preserve" style="font-style:normal;font-weight:400;font-size:16px;line-height:1.25;font-family:sans-serif;fill:#d7d7d7;fill-opacity:1;stroke:none" x="132.917" y="346.851"><tspan x="132.917" y="346.851" style="font-size:16px">Star!</tspan></text><text xml:space="preserve" style="font-style:normal;font-weight:400;font-size:16px;line-height:1.25;font-family:sans-serif;fill:#d7d7d7;fill-opacity:1;stroke:none" x="111.005" y="325.624" transform="translate(17.733 -1.644)"><tspan x="111.005" y="325.624" style="font-size:16px">233333</tspan></text><text xml:space="preserve" style="font-style:normal;font-weight:400;font-size:16px;line-height:1.25;font-family:sans-serif;fill:#d7d7d7;fill-opacity:1;stroke:none" x="16.123" y="325.768" transform="translate(17.733 -1.644)"><tspan x="16.123" y="325.768" style="font-size:16px">泪目</tspan></text><text xml:space="preserve" style="font-style:normal;font-weight:400;font-size:16px;line-height:1.25;font-family:sans-serif;fill:#d7d7d7;fill-opacity:1;stroke:none" x="63.824" y="368.7" transform="translate(-36.267 1.26)"><tspan x="63.824" y="368.7" style="font-size:16px">下次一定</tspan></text><text xml:space="preserve" style="font-style:normal;font-weight:400;font-size:16px;line-height:1.25;font-family:sans-serif;fill:#d7d7d7;fill-opacity:1;stroke:none" x="150.89" y="372.34" transform="translate(-36.267 1.26)"><tspan x="150.89" y="372.34" dy="0" style="font-size:16px">艹</tspan></text><text xml:space="preserve" style="font-style:normal;font-weight:400;font-size:16px;line-height:1.25;font-family:sans-serif;fill:#d7d7d7;fill-opacity:1;stroke:none" x="15.841" y="347.027"><tspan x="15.841" y="347.027" style="font-size:16px">锟斤拷 烫烫烫</tspan></text><text xml:space="preserve" style="font-style:normal;font-weight:400;font-size:16px;line-height:1.25;font-family:sans-serif;fill:#d7d7d7;fill-opacity:1;stroke:none" x="60.399" y="392.807"><tspan x="60.399" y="392.807" style="font-size:16px">屯屯屯 锘锘锘</tspan></text></svg>