<?xml version="1.0" encoding="UTF-8" standalone="no"?>
<!-- Created with Inkscape (http://www.inkscape.org/) -->

<svg
   width="200"
   height="400"
   version="1.1"
   id="svg5"
   inkscape:version="1.1.1 (3bf5ae0d25, 2021-09-20, custom)"
   sodipodi:docname="ocr_o.svg"
   xmlns:inkscape="http://www.inkscape.org/namespaces/inkscape"
   xmlns:sodipodi="http://sodipodi.sourceforge.net/DTD/sodipodi-0.dtd"
   xmlns:xlink="http://www.w3.org/1999/xlink"
   xmlns="http://www.w3.org/2000/svg"
   xmlns:svg="http://www.w3.org/2000/svg">
  <sodipodi:namedview
     id="namedview7"
     pagecolor="#ffffff"
     bordercolor="#111111"
     borderopacity="1"
     inkscape:pageshadow="0"
     inkscape:pageopacity="0"
     inkscape:pagecheckerboard="1"
     inkscape:document-units="px"
     showgrid="false"
     units="px"
     width="200px"
     inkscape:zoom="7.9999999"
     inkscape:cx="124.75"
     inkscape:cy="88.875001"
     inkscape:window-width="1920"
     inkscape:window-height="1031"
     inkscape:window-x="0"
     inkscape:window-y="0"
     inkscape:window-maximized="1"
     inkscape:current-layer="layer1"
     showguides="false" />
  <defs
     id="defs2">
    <linearGradient
       inkscape:collect="always"
       xlink:href="#linearGradient851"
       id="linearGradient853-8"
       x1="2.7755576e-17"
       y1="-1.3877788e-17"
       x2="26.458334"
       y2="26.458334"
       gradientUnits="userSpaceOnUse"
       gradientTransform="matrix(6.8031495,0,0,3.7795275,9.9999937,10.000002)" />
    <linearGradient
       inkscape:collect="always"
       id="linearGradient851">
      <stop
         style="stop-color:#80deea;stop-opacity:1"
         offset="0"
         id="stop847" />
      <stop
         style="stop-color:#1976d2;stop-opacity:1"
         offset="1"
         id="stop849" />
    </linearGradient>
    <clipPath
       clipPathUnits="userSpaceOnUse"
       id="clipPath1089">
      <g
         inkscape:label="Clip"
         id="use1091" />
    </clipPath>
  </defs>
  <g
     inkscape:label="图层 1"
     inkscape:groupmode="layer"
     id="layer1">
    <rect
       style="fill:url(#linearGradient853-8);fill-opacity:1;stroke-width:0"
       id="rect839-1"
       width="180"
       height="100"
       x="10"
       y="10"
       ry="10" />
    <path
       id="rect839-1-8"
       style="fill:#ffffff;fill-opacity:0.70540881;stroke-width:0"
       d="m 138.29688,110 c -0.69855,-0.41386 -0.90615,-0.5436 -2.53126,-1.48633 -1.35926,-0.78851 -3.01967,-1.74367 -4.9414,-2.83594 -1.92173,-1.09226 -4.10369,-2.32056 -6.50977,-3.65625 -2.40608,-1.33568 -5.03533,-2.778093 -7.84765,-4.296871 -2.81232,-1.518777 -5.80878,-3.114324 -8.94922,-4.755859 -3.14045,-1.641535 -6.42595,-3.329244 -9.816408,-5.033203 -3.390461,-1.703959 -6.884902,-3.424809 -10.447266,-5.130859 -1.781182,-0.853026 -3.57916,-1.702687 -5.388672,-2.544922 -1.809511,-0.842236 -3.630907,-1.676096 -5.458984,-2.5 -1.828077,-0.823905 -3.663121,-1.637516 -5.5,-2.435547 -1.836879,-0.798032 -3.675803,-1.581086 -5.511719,-2.345703 -1.835916,-0.764618 -3.668951,-1.510714 -5.49414,-2.234375 -1.82519,-0.723662 -3.642567,-1.424446 -5.447266,-2.09961 C 52.648426,67.969368 50.856476,67.320296 49.082031,66.701172 47.307587,66.082047 45.550832,65.493044 43.816406,64.9375 42.08198,64.381956 40.37019,63.859421 38.685547,63.375 c -1.684644,-0.484421 -3.3417,-0.932133 -4.966797,-1.337891 -1.625097,-0.405757 -3.219605,-0.770292 -4.775391,-1.089843 -1.555786,-0.319552 -3.07407,-0.594508 -4.550781,-0.820313 -1.476711,-0.225804 -2.910955,-0.402828 -4.298828,-0.527344 -0.693936,-0.06226 -1.376979,-0.110962 -2.046875,-0.146484 -0.669896,-0.03552 -1.326068,-0.05661 -1.970703,-0.06445 -0.644635,-0.0078 -1.276378,-0.0012 -1.894531,0.01953 -0.618154,0.02078 -1.224002,0.05512 -1.814453,0.105469 -0.590452,0.05034 -1.165034,0.116415 -1.726563,0.197266 C 10.421337,59.742511 10.214747,59.787893 10,59.824219 V 100 c 0,5.54 4.46,10 10,10 z" />
    <path
       id="rect839-1-0"
       style="fill:#ffffff;fill-opacity:0.94845802;stroke-width:0"
       d="m 190,49.560547 c -0.59508,-0.266172 -1.18977,-0.540012 -1.78516,-0.783203 -0.92899,-0.379458 -1.85972,-0.729893 -2.78906,-1.054688 -0.92933,-0.324795 -1.85792,-0.622829 -2.78711,-0.894531 -0.92919,-0.271702 -1.85855,-0.518104 -2.78711,-0.738281 -0.92856,-0.220178 -1.85576,-0.415715 -2.7832,-0.585938 -0.92744,-0.170222 -1.85542,-0.315663 -2.78125,-0.4375 -0.92584,-0.121836 -1.84969,-0.219902 -2.77344,-0.294922 -0.92374,-0.07502 -1.84641,-0.126479 -2.76758,-0.15625 -0.92116,-0.02977 -1.84166,-0.03735 -2.75976,-0.02344 -0.9181,0.01391 -1.8335,0.04945 -2.74805,0.105469 -0.91455,0.05602 -1.82777,0.131956 -2.73828,0.228515 -0.91051,0.09656 -1.81863,0.214078 -2.72461,0.34961 -0.90598,0.135531 -1.80997,0.289955 -2.71094,0.46289 -0.90097,0.172935 -1.79984,0.363497 -2.69531,0.572266 -0.89547,0.208769 -1.78825,0.4347 -2.67773,0.677734 -0.88949,0.243034 -1.77519,0.503567 -2.65821,0.779297 -0.88301,0.27573 -1.76261,0.568143 -2.63867,0.875 -0.87606,0.306858 -1.74858,0.628428 -2.61719,0.964844 -0.86861,0.336415 -1.73307,0.686376 -2.59375,1.050781 -0.86068,0.364405 -1.71805,0.743941 -2.57031,1.134766 -0.85226,0.390825 -1.69961,0.793308 -2.54297,1.208984 -0.84335,0.415676 -1.68166,0.844245 -2.51562,1.283203 -1.66793,0.877917 -3.31788,1.800088 -4.94531,2.761719 -1.62744,0.961631 -3.23336,1.961347 -4.81641,2.994141 -1.58305,1.032793 -3.14296,2.098049 -4.67774,3.189453 -1.53477,1.091404 -3.04473,2.210193 -4.52734,3.347656 -1.48261,1.137463 -2.93674,2.293875 -4.36328,3.464844 -1.42654,1.170969 -2.82482,2.356904 -4.19141,3.548828 -1.36658,1.191924 -2.70117,2.389517 -4.0039,3.589844 -1.302738,1.200326 -2.573607,2.403432 -3.808597,3.599609 -1.23499,1.196177 -2.434304,2.386931 -3.597656,3.566406 -1.163353,1.179475 -2.291085,2.345872 -3.378906,3.496094 -1.087821,1.150222 -2.136136,2.284162 -3.144532,3.392578 -1.008396,1.108416 -1.977266,2.192035 -2.902343,3.246094 -0.925078,1.054058 -1.806666,2.077304 -2.644532,3.064453 -1.67573,1.974298 -3.173041,3.802248 -4.476562,5.433598 -1.303521,1.63135 -2.412338,3.06592 -3.3125,4.25391 -1.322127,1.74486 -1.660268,2.24461 -2.029297,2.76562 H 180 c 5.54,0 10,-4.46 10,-10.000003 z" />
    <circle
       style="fill:#fffd93;fill-opacity:1;stroke-width:10.5833;stroke-linecap:round;stroke-linejoin:round;stroke-dashoffset:4"
       id="path1499"
       cx="57.007294"
       cy="32.970158"
       r="12" />
    <rect
       style="fill:#d7d7d7;fill-opacity:1;stroke:none;stroke-width:1;stroke-linecap:round;stroke-linejoin:round;stroke-miterlimit:4;stroke-dasharray:none;stroke-dashoffset:4;stroke-opacity:1"
       id="rect4785"
       width="60"
       height="20"
       x="10"
       y="130" />
    <rect
       style="fill:#d7d7d7;fill-opacity:1;stroke:none;stroke-width:1;stroke-linecap:round;stroke-linejoin:round;stroke-miterlimit:4;stroke-dasharray:none;stroke-dashoffset:4;stroke-opacity:1"
       id="rect4787"
       width="180"
       height="10"
       x="10"
       y="160" />
    <rect
       style="fill:#d7d7d7;fill-opacity:1;stroke:none;stroke-width:1;stroke-linecap:round;stroke-linejoin:round;stroke-miterlimit:4;stroke-dasharray:none;stroke-dashoffset:4;stroke-opacity:1"
       id="rect4787-7"
       width="180"
       height="10"
       x="10"
       y="180" />
    <rect
       style="fill:#d7d7d7;fill-opacity:1;stroke:none;stroke-width:1;stroke-linecap:round;stroke-linejoin:round;stroke-miterlimit:4;stroke-dasharray:none;stroke-dashoffset:4;stroke-opacity:1"
       id="rect4787-3"
       width="180"
       height="10"
       x="10"
       y="200" />
    <rect
       style="fill:#d7d7d7;fill-opacity:1;stroke:none;stroke-width:1;stroke-linecap:round;stroke-linejoin:round;stroke-miterlimit:4;stroke-dasharray:none;stroke-dashoffset:4;stroke-opacity:1"
       id="rect4787-6"
       width="180"
       height="10"
       x="10"
       y="220" />
    <rect
       style="fill:#d7d7d7;fill-opacity:1;stroke:none;stroke-width:1;stroke-linecap:round;stroke-linejoin:round;stroke-miterlimit:4;stroke-dasharray:none;stroke-dashoffset:4;stroke-opacity:1"
       id="rect4787-6-3"
       width="180"
       height="10"
       x="10"
       y="240" />
    <rect
       style="fill:#d7d7d7;fill-opacity:1;stroke:none;stroke-width:1;stroke-linecap:round;stroke-linejoin:round;stroke-miterlimit:4;stroke-dasharray:none;stroke-dashoffset:4;stroke-opacity:1"
       id="rect4787-5"
       width="180"
       height="10"
       x="10"
       y="260" />
    <text
       xml:space="preserve"
       style="font-style:normal;font-weight:normal;font-size:16px;line-height:1.25;font-family:sans-serif;fill:#d7d7d7;fill-opacity:1;stroke:none"
       x="30.367968"
       y="301.11096"
       id="text10785"><tspan
         sodipodi:role="line"
         id="tspan10783"
         x="30.367968"
         y="301.11096"
         style="font-size:16px">666</tspan></text>
    <text
       xml:space="preserve"
       style="font-style:normal;font-weight:normal;font-size:16px;line-height:1.25;font-family:sans-serif;fill:#d7d7d7;fill-opacity:1;stroke:none"
       x="156.82098"
       y="369.72064"
       id="text10785-6"><tspan
         sodipodi:role="line"
         id="tspan10783-5"
         x="156.82098"
         y="369.72064"
         style="font-size:16px">666</tspan></text>
    <text
       xml:space="preserve"
       style="font-style:normal;font-weight:normal;font-size:16px;line-height:1.25;font-family:sans-serif;fill:#d7d7d7;fill-opacity:1;stroke:none"
       x="87.701515"
       y="301.34296"
       id="text16153"><tspan
         sodipodi:role="line"
         id="tspan16151"
         x="87.701515"
         y="301.34296"
         style="font-size:16px">点个Star吧</tspan></text>
    <text
       xml:space="preserve"
       style="font-style:normal;font-weight:normal;font-size:16px;line-height:1.25;font-family:sans-serif;fill:#d7d7d7;fill-opacity:1;stroke:none"
       x="132.91684"
       y="346.85077"
       id="text16153-6"><tspan
         sodipodi:role="line"
         id="tspan16151-3"
         x="132.91684"
         y="346.85077"
         style="font-size:16px">Star!</tspan></text>
    <g
       id="g897"
       transform="translate(17.732808,-1.6436157)">
      <text
         xml:space="preserve"
         style="font-style:normal;font-weight:normal;font-size:16px;line-height:1.25;font-family:sans-serif;fill:#d7d7d7;fill-opacity:1;stroke:none"
         x="111.00527"
         y="325.62445"
         id="text12163"><tspan
           sodipodi:role="line"
           id="tspan12161"
           x="111.00527"
           y="325.62445"
           style="font-size:16px">233333</tspan></text>
      <text
         xml:space="preserve"
         style="font-style:normal;font-weight:normal;font-size:16px;line-height:1.25;font-family:sans-serif;fill:#d7d7d7;fill-opacity:1;stroke:none"
         x="16.122717"
         y="325.76846"
         id="text19867"><tspan
           sodipodi:role="line"
           id="tspan19865"
           x="16.122717"
           y="325.76846"
           style="font-size:16px">泪目</tspan></text>
    </g>
    <g
       id="g903"
       transform="translate(-36.267192,1.2608337)">
      <text
         xml:space="preserve"
         style="font-style:normal;font-weight:normal;font-size:16px;line-height:1.25;font-family:sans-serif;fill:#d7d7d7;fill-opacity:1;stroke:none"
         x="63.824474"
         y="368.6998"
         id="text14851"><tspan
           sodipodi:role="line"
           id="tspan14849"
           x="63.824474"
           y="368.6998"
           style="font-size:16px">下次一定</tspan></text>
      <text
         xml:space="preserve"
         style="font-style:normal;font-weight:normal;font-size:16px;line-height:1.25;font-family:sans-serif;fill:#d7d7d7;fill-opacity:1;stroke:none"
         x="150.89035"
         y="372.33981"
         id="text5776"><tspan
           sodipodi:role="line"
           id="tspan5774"
           x="150.89035"
           y="372.33981"
           dy="0"
           style="font-size:16px">艹</tspan></text>
    </g>
    <text
       xml:space="preserve"
       style="font-style:normal;font-weight:normal;font-size:16px;line-height:1.25;font-family:sans-serif;fill:#d7d7d7;fill-opacity:1;stroke:none"
       x="15.840841"
       y="347.02676"
       id="text28113"><tspan
         sodipodi:role="line"
         id="tspan28111"
         x="15.840841"
         y="347.02676"
         style="font-size:16px">锟斤拷 烫烫烫</tspan></text>
    <text
       xml:space="preserve"
       style="font-style:normal;font-weight:normal;font-size:16px;line-height:1.25;font-family:sans-serif;fill:#d7d7d7;fill-opacity:1;stroke:none"
       x="60.398586"
       y="392.80652"
       id="text43023"><tspan
         sodipodi:role="line"
         id="tspan43021"
         x="60.398586"
         y="392.80652"
         style="font-size:16px">屯屯屯 锘锘锘</tspan></text>
  </g>
</svg>
