<svg width="200" height="200" xmlns="http://www.w3.org/2000/svg"><path style="fill:#e5e5e5;fill-opacity:1;stroke:none;stroke-width:10.0007;stroke-linecap:round;stroke-linejoin:round;stroke-dashoffset:4" d="M0 40h160v160H0z"/><path style="fill:none;stroke:#000;stroke-width:4;stroke-linecap:round;stroke-linejoin:bevel;stroke-miterlimit:4;stroke-dasharray:none;stroke-opacity:1" d="M60 120h40M80 100v40M75 105l5-5 5 5M95 115l5 5-5 5M85 135l-5 5-5-5M65 125l-5-5 5-5"/><path style="fill:none;stroke:#000;stroke-width:4;stroke-linecap:round;stroke-linejoin:bevel;stroke-opacity:1;stroke-miterlimit:4;stroke-dasharray:none" d="M100 30v20"/><path style="fill:none;stroke:#000;stroke-width:4;stroke-linecap:round;stroke-linejoin:bevel;stroke-miterlimit:4;stroke-dasharray:none;stroke-opacity:1" d="m95 45 5 5 5-5M95 35l5-5 5 5"/><path style="fill:none;stroke:#000;stroke-width:4;stroke-linecap:round;stroke-linejoin:round;stroke-opacity:1;stroke-miterlimit:4;stroke-dasharray:none" d="m150 50 20-20"/><path style="fill:none;stroke:#000;stroke-width:4;stroke-linecap:round;stroke-linejoin:round;stroke-miterlimit:4;stroke-dasharray:none;stroke-opacity:1" d="M160 30h10v10M160 50h-10V40"/><path style="fill:none;stroke:#000;stroke-width:4;stroke-linecap:round;stroke-linejoin:bevel;stroke-opacity:1;stroke-miterlimit:4;stroke-dasharray:none" d="M150 100h20"/><path style="fill:none;stroke:#000;stroke-width:4;stroke-linecap:round;stroke-linejoin:bevel;stroke-miterlimit:4;stroke-dasharray:none;stroke-opacity:1" d="m165 95 5 5-5 5M155 95l-5 5 5 5"/></svg>