<?xml version="1.0" encoding="UTF-8" standalone="no"?>
<svg
   viewBox="0 0 80.75 80.75"
   version="1.1"
   id="svg8"
   sodipodi:docname="baidu.svg"
   width="80.75"
   height="80.75"
   inkscape:version="1.3.2 (091e20ef0f, 2023-11-25, custom)"
   xmlns:inkscape="http://www.inkscape.org/namespaces/inkscape"
   xmlns:sodipodi="http://sodipodi.sourceforge.net/DTD/sodipodi-0.dtd"
   xmlns="http://www.w3.org/2000/svg"
   xmlns:svg="http://www.w3.org/2000/svg"
   xmlns:rdf="http://www.w3.org/1999/02/22-rdf-syntax-ns#"
   xmlns:cc="http://creativecommons.org/ns#"
   xmlns:dc="http://purl.org/dc/elements/1.1/">
  <defs
     id="defs8" />
  <sodipodi:namedview
     id="namedview8"
     pagecolor="#ffffff"
     bordercolor="#111111"
     borderopacity="1"
     inkscape:showpageshadow="0"
     inkscape:pageopacity="0"
     inkscape:pagecheckerboard="1"
     inkscape:deskcolor="#d1d1d1"
     inkscape:zoom="1.6329953"
     inkscape:cx="-4.2866014"
     inkscape:cy="1.5309291"
     inkscape:window-width="1920"
     inkscape:window-height="1020"
     inkscape:window-x="0"
     inkscape:window-y="0"
     inkscape:window-maximized="1"
     inkscape:current-layer="svg8" />
  <title
     id="title1">Baidu logo</title>
  <g
     id="g8"
     transform="translate(-76.776998)">
    <path
       d="m 93.47,43.16 c 8,-1.73 6.95,-11.36 6.71,-13.46 -0.4,-3.24 -4.21,-8.91 -9.38,-8.46 -6.51,0.58 -7.47,10 -7.47,10 -0.88,4.36 2.11,13.66 10.14,11.93 m 14.94,-16.14 c 4.44,0 8,-5.12 8,-11.44 0,-6.32 -3.59,-11.43 -8,-11.43 -4.41,0 -8,5.11 -8,11.43 0,6.32 3.6,11.44 8,11.44 m 19.15,0.75 c 5.95,0.78 9.76,-5.56 10.52,-10.37 0.76,-4.81 -3.06,-10.38 -7.26,-11.34 -4.2,-0.96 -9.48,5.78 -10,10.19 -0.58,5.39 0.76,10.76 6.7,11.52 m 23.54,8.07 c 0,-2.3 -1.9,-9.23 -9,-9.23 -7.1,0 -8,6.54 -8,11.16 0,4.41 0.37,10.56 9.19,10.37 8.82,-0.19 7.84,-10 7.84,-12.3 m -9,20.18 c 0,0 -9.19,-7.11 -14.56,-14.8 -7.28,-11.33 -17.62,-6.72 -21.07,-1 -3.45,5.72 -8.8,9.41 -9.57,10.38 -0.77,0.97 -11.1,6.53 -8.81,16.72 2.29,10.19 10.35,10 10.35,10 a 45.24,45.24 0 0 0 12.82,-1 27,27 0 0 1 12.83,0.38 c 0,0 16.09,5.4 20.49,-5 4.4,-10.4 -2.48,-15.76 -2.48,-15.76"
       style="fill:#2319dc"
       id="path1" />
    <path
       d="m 109.84,46.12 v 6.84 h -5.57 a 9.19,9.19 0 0 0 -7.52,6.78 11.94,11.94 0 0 0 0.82,7.23 9.17,9.17 0 0 0 6.55,4.52 h 10.46 V 46.2 Z m -0.09,21.26 h -4.21 a 4.44,4.44 0 0 1 -3.83,-3.53 6.79,6.79 0 0 1 0.3,-3.91 4.92,4.92 0 0 1 3.23,-2.86 h 4.51 z"
       style="fill:#ffffff"
       id="path2" />
    <path
       d="m 117.14,53.57 v 13.31 c 0,0 0.22,3.31 4.89,4.52 h 12 V 53.57 h -5.19 v 13.39 h -5 c 0,0 -1.58,-0.23 -1.88,-1.5 v -12 z"
       style="fill:#ffffff"
       id="path3" />
  </g>
  <metadata
     id="metadata8">
    <rdf:RDF>
      <cc:Work
         rdf:about="">
        <dc:title>Baidu logo</dc:title>
      </cc:Work>
    </rdf:RDF>
  </metadata>
</svg>
