<?xml version="1.0" encoding="UTF-8" standalone="no"?>
<svg
   viewBox="0 0 343.41 343.41"
   version="1.1"
   id="svg41"
   sodipodi:docname="bing.svg"
   width="343.41"
   height="343.41"
   inkscape:version="1.3.2 (091e20ef0f, 2023-11-25, custom)"
   xmlns:inkscape="http://www.inkscape.org/namespaces/inkscape"
   xmlns:sodipodi="http://sodipodi.sourceforge.net/DTD/sodipodi-0.dtd"
   xmlns:xlink="http://www.w3.org/1999/xlink"
   xmlns="http://www.w3.org/2000/svg"
   xmlns:svg="http://www.w3.org/2000/svg"
   xmlns:rdf="http://www.w3.org/1999/02/22-rdf-syntax-ns#"
   xmlns:cc="http://creativecommons.org/ns#"
   xmlns:dc="http://purl.org/dc/elements/1.1/">
  <sodipodi:namedview
     id="namedview41"
     pagecolor="#ffffff"
     bordercolor="#111111"
     borderopacity="1"
     inkscape:showpageshadow="0"
     inkscape:pageopacity="0"
     inkscape:pagecheckerboard="1"
     inkscape:deskcolor="#d1d1d1"
     inkscape:zoom="0.92971889"
     inkscape:cx="215.11879"
     inkscape:cy="426.473"
     inkscape:window-width="1920"
     inkscape:window-height="1020"
     inkscape:window-x="0"
     inkscape:window-y="0"
     inkscape:window-maximized="1"
     inkscape:current-layer="svg41" />
  <defs
     id="defs35">
    <linearGradient
       id="a"
       x1="-29.25"
       y1="662.02002"
       x2="-23.09"
       y2="658.46002"
       gradientTransform="matrix(24.45,0,0,-24.45,967.18,16420.97)"
       gradientUnits="userSpaceOnUse">
      <stop
         offset="0"
         stop-color="#37bdff"
         id="stop1" />
      <stop
         offset="0.18"
         stop-color="#33bffd"
         id="stop2" />
      <stop
         offset="0.36"
         stop-color="#28c5f5"
         id="stop3" />
      <stop
         offset="0.53"
         stop-color="#15d0e9"
         id="stop4" />
      <stop
         offset="0.55"
         stop-color="#12d1e7"
         id="stop5" />
      <stop
         offset="0.59"
         stop-color="#1cd2e5"
         id="stop6" />
      <stop
         offset="0.77"
         stop-color="#42d8dc"
         id="stop7" />
      <stop
         offset="0.91"
         stop-color="#59dbd6"
         id="stop8" />
      <stop
         offset="1"
         stop-color="#62dcd4"
         id="stop9" />
    </linearGradient>
    <linearGradient
       id="b"
       x1="-32.860001"
       y1="656.67999"
       x2="-23.889999"
       y2="656.67999"
       gradientTransform="matrix(24.45,0,0,-24.45,967.18,16420.97)"
       gradientUnits="userSpaceOnUse">
      <stop
         offset="0"
         stop-color="#39d2ff"
         id="stop10" />
      <stop
         offset="0.15"
         stop-color="#38cefe"
         id="stop11" />
      <stop
         offset="0.29"
         stop-color="#35c3fa"
         id="stop12" />
      <stop
         offset="0.43"
         stop-color="#2fb0f3"
         id="stop13" />
      <stop
         offset="0.55"
         stop-color="#299aeb"
         id="stop14" />
      <stop
         offset="0.58"
         stop-color="#2692ec"
         id="stop15" />
      <stop
         offset="0.76"
         stop-color="#1a6cf1"
         id="stop16" />
      <stop
         offset="0.91"
         stop-color="#1355f4"
         id="stop17" />
      <stop
         offset="1"
         stop-color="#104cf5"
         id="stop18" />
    </linearGradient>
    <linearGradient
       id="c"
       x1="-31.200001"
       y1="655.90002"
       x2="-31.200001"
       y2="667.89001"
       gradientTransform="matrix(24.45,0,0,-24.45,967.18,16420.97)"
       gradientUnits="userSpaceOnUse">
      <stop
         offset="0"
         stop-color="#1b48ef"
         id="stop19" />
      <stop
         offset="0.12"
         stop-color="#1c51f0"
         id="stop20" />
      <stop
         offset="0.32"
         stop-color="#1e69f5"
         id="stop21" />
      <stop
         offset="0.57"
         stop-color="#2190fb"
         id="stop22" />
      <stop
         offset="1"
         stop-color="#26b8f4"
         id="stop23" />
    </linearGradient>
    <clipPath
       id="d"
       transform="translate(-163 -82.94)">
      <rect
         x="163.02"
         y="288.38"
         width="227.17"
         height="140.75999"
         style="fill:none"
         id="rect23" />
    </clipPath>
    <linearGradient
       id="e"
       x1="-31.08"
       y1="654.46997"
       x2="-25.540001"
       y2="660"
       gradientTransform="matrix(24.45,0,0,-24.45,967.18,16420.97)"
       gradientUnits="userSpaceOnUse">
      <stop
         offset="0"
         stop-color="#fff"
         id="stop24" />
      <stop
         offset="0.37"
         stop-color="#fdfdfd"
         id="stop25" />
      <stop
         offset="0.51"
         stop-color="#f6f6f6"
         id="stop26" />
      <stop
         offset="0.6"
         stop-color="#ebebeb"
         id="stop27" />
      <stop
         offset="0.68"
         stop-color="#dadada"
         id="stop28" />
      <stop
         offset="0.75"
         stop-color="#c4c4c4"
         id="stop29" />
      <stop
         offset="0.81"
         stop-color="#a8a8a8"
         id="stop30" />
      <stop
         offset="0.86"
         stop-color="#888"
         id="stop31" />
      <stop
         offset="0.91"
         stop-color="#626262"
         id="stop32" />
      <stop
         offset="0.95"
         stop-color="#373737"
         id="stop33" />
      <stop
         offset="0.99"
         stop-color="#090909"
         id="stop34" />
      <stop
         offset="1"
         id="stop35" />
    </linearGradient>
    <clipPath
       id="f"
       transform="translate(-163 -82.94)">
      <rect
         x="163.02"
         y="82.870003"
         width="86.510002"
         height="302.95999"
         style="fill:none"
         id="rect35" />
    </clipPath>
    <linearGradient
       id="g"
       x1="-31.200001"
       y1="668.09998"
       x2="-31.200001"
       y2="656.02002"
       xlink:href="#e" />
  </defs>
  <title
     id="title35">bing-logo</title>
  <g
     id="g42"
     transform="translate(54.685002)">
    <path
       d="m 397,303.4 a 92.73,92.73 0 0 1 -24.84,63.16 41.81,41.81 0 0 0 4.5,-6 38.11,38.11 0 0 0 2.69,-5.08 17.7,17.7 0 0 0 0.74,-1.78 17.25,17.25 0 0 0 0.65,-1.78 c 0.21,-0.56 0.39,-1.14 0.55,-1.72 0.16,-0.58 0.33,-1.2 0.46,-1.81 l 0.07,-0.21 c 0.14,-0.6 0.25,-1.2 0.37,-1.81 0.12,-0.61 0.23,-1.25 0.33,-1.88 v 0 c 0.09,-0.58 0.16,-1.16 0.21,-1.76 a 40,40 0 0 0 0.21,-4.13 41.41,41.41 0 0 0 -5.94,-21.49 36.51,36.51 0 0 0 -2.85,-4.17 39.93,39.93 0 0 0 -4,-4.43 41.45,41.45 0 0 0 -12.36,-8.28 38.78,38.78 0 0 0 -6.22,-2.14 h -0.09 l -0.74,-0.25 -10.81,-3.71 v 0 l -28.27,-9.72 c -0.09,0 -0.21,0 -0.28,0 l -1.77,-0.65 A 26.23,26.23 0 0 1 296.29,272 L 286,245.62 l -11.83,-30.16 -2.27,-5.82 -0.58,-1.18 a 13.35,13.35 0 0 1 -1,-5.08 12,12 0 0 1 0,-1.35 13.19,13.19 0 0 1 18.26,-10.79 l 52.69,27 10.39,5.31 A 91.11,91.11 0 0 1 367,235 a 92.45,92.45 0 0 1 29.79,61.87 c 0.12,2.19 0.21,4.35 0.21,6.53 z"
       transform="translate(-163,-82.94)"
       style="fill:url(#a)"
       id="path35" />
    <path
       d="m 382.91,338.56 a 42.8,42.8 0 0 1 -0.72,7.82 c -0.14,0.67 -0.28,1.35 -0.44,2 -0.3,1.2 -0.62,2.36 -1,3.53 -0.21,0.6 -0.42,1.2 -0.65,1.78 -0.23,0.58 -0.49,1.18 -0.74,1.78 a 38.1,38.1 0 0 1 -2.69,5.08 42.22,42.22 0 0 1 -4.5,6 c -7.68,8.49 -33.75,23.63 -43.36,29.79 l -21.33,13 c -15.63,9.63 -30.41,16.45 -49,16.91 -0.88,0 -1.74,0 -2.6,0 -1.2,0 -2.39,0 -3.57,-0.07 a 92.86,92.86 0 0 1 -74.92,-43.17 91.58,91.58 0 0 1 -13.68,-38.67 41.13,41.13 0 0 0 60,28.95 l 0.14,-0.07 2.09,-1.25 8.49,-5 10.81,-6.4 v -0.3 l 1.39,-0.83 96.71,-57.29 7.44,-4.41 0.74,0.25 h 0.09 a 38.31,38.31 0 0 1 6.22,2.14 41.45,41.45 0 0 1 12.36,8.28 40,40 0 0 1 4,4.43 37,37 0 0 1 2.85,4.17 41.64,41.64 0 0 1 5.87,21.55 z"
       transform="translate(-163,-82.94)"
       style="fill:url(#b)"
       id="path36" />
    <path
       d="m 245.24,147.35 v 213.29 l -10.85,6.36 -8.5,5 -2.09,1.27 a 0.24,0.24 0 0 0 -0.13,0.06 41.13,41.13 0 0 1 -60,-28.94 c -0.16,-0.89 -0.28,-1.81 -0.38,-2.7 -0.13,-1.68 -0.22,-3.33 -0.25,-5 v -240 A 13.77,13.77 0 0 1 184.5,85.28 l 42.07,27.48 a 5.55,5.55 0 0 0 0.73,0.51 41.14,41.14 0 0 1 17.94,34.08 z"
       transform="translate(-163,-82.94)"
       style="fill:url(#c)"
       id="path37" />
    <g
       style="opacity:0.098;isolation:isolate"
       id="g41">
      <g
         clip-path="url(#f)"
         id="g40">
        <path
           d="m 245.24,147.35 v 213.29 l -10.85,6.36 -8.5,5 -2.09,1.27 a 0.24,0.24 0 0 0 -0.13,0.06 41.13,41.13 0 0 1 -60,-28.94 c -0.16,-0.89 -0.28,-1.81 -0.38,-2.7 -0.13,-1.68 -0.22,-3.33 -0.25,-5 v -240 A 13.77,13.77 0 0 1 184.5,85.28 l 42.07,27.48 a 5.55,5.55 0 0 0 0.73,0.51 41.14,41.14 0 0 1 17.94,34.08 z"
           transform="translate(-163,-82.94)"
           style="fill:url(#g)"
           id="path39" />
      </g>
    </g>
  </g>
  <metadata
     id="metadata42">
    <rdf:RDF>
      <cc:Work
         rdf:about="">
        <dc:title>bing-logo</dc:title>
      </cc:Work>
    </rdf:RDF>
  </metadata>
</svg>
